<svg id="Capa_1" data-name="Capa 1" xmlns="http://www.w3.org/2000/svg" viewBox="0 0 1366 84.57"><defs><style>.cls-1{fill:#fc0;}.cls-2{fill:#00217e;}.cls-3{fill:#f0112e;}.cls-4{fill:#fff;}</style></defs><rect class="cls-1" width="1366" height="28.19"/><rect class="cls-2" y="28.19" width="1366" height="28.19"/><rect class="cls-3" y="56.38" width="1366" height="28.19"/><polygon class="cls-4" points="226.09 42.07 223.02 45.02 223.7 49.22 219.95 47.2 216.16 49.15 216.92 44.96 213.9 41.96 218.12 41.38 220.04 37.59 221.89 41.42 226.09 42.07"/><polygon class="cls-4" points="373.18 42.01 370.1 44.95 370.78 49.16 367.03 47.14 363.24 49.08 364 44.89 360.98 41.89 365.2 41.32 367.12 37.52 368.97 41.36 373.18 42.01"/><polygon class="cls-4" points="520.04 41.76 516.96 44.7 517.64 48.91 513.89 46.89 510.11 48.83 510.87 44.65 507.85 41.65 512.07 41.07 513.99 37.27 515.83 41.11 520.04 41.76"/><polygon class="cls-4" points="667.12 41.7 664.04 44.64 664.72 48.84 660.98 46.83 657.19 48.77 657.95 44.58 654.93 41.58 659.15 41.01 661.07 37.21 662.91 41.05 667.12 41.7"/><polygon class="cls-4" points="814.83 41.76 811.76 44.7 812.44 48.91 808.69 46.89 804.9 48.83 805.66 44.65 802.64 41.65 806.86 41.07 808.78 37.27 810.63 41.11 814.83 41.76"/><polygon class="cls-4" points="961.92 41.7 958.84 44.64 959.52 48.84 955.77 46.83 951.98 48.77 952.74 44.58 949.72 41.58 953.94 41.01 955.86 37.21 957.71 41.05 961.92 41.7"/><polygon class="cls-4" points="1109.23 41.7 1106.16 44.64 1106.84 48.84 1103.09 46.82 1099.3 48.77 1100.06 44.58 1097.04 41.58 1101.26 41.01 1103.18 37.21 1105.03 41.04 1109.23 41.7"/><polygon class="cls-4" points="1256.32 41.63 1253.24 44.58 1253.92 48.78 1250.17 46.76 1246.38 48.71 1247.14 44.52 1244.12 41.52 1248.34 40.95 1250.26 37.15 1252.11 40.98 1256.32 41.63"/></svg>