<svg id="Capa_1" data-name="Capa 1" xmlns="http://www.w3.org/2000/svg" viewBox="0 0 13.24 16.88"><defs><style>.cls-1{fill:none;stroke:#fff;stroke-miterlimit:10;stroke-width:0.5px;}</style></defs><path class="cls-1" d="M18,21.76H5.66a.22.22,0,0,1-.22-.23V11.66a.22.22,0,0,1,.22-.23H18a.23.23,0,0,1,.23.23v9.87A.23.23,0,0,1,18,21.76ZM5.89,21.3H17.72V11.88H5.89Z" transform="translate(-5.19 -5.13)"/><path class="cls-1" d="M15.88,11.88a.22.22,0,0,1-.23-.22V9.6a3.89,3.89,0,0,0-7.78,0v2.06a.23.23,0,0,1-.46,0V9.6a4.29,4.29,0,0,1,4.35-4.22A4.28,4.28,0,0,1,16.1,9.6v2.06A.22.22,0,0,1,15.88,11.88Z" transform="translate(-5.19 -5.13)"/><path class="cls-1" d="M11.81,18.32a.22.22,0,0,1-.23-.22v-3a.23.23,0,0,1,.23-.23.24.24,0,0,1,.23.23v3A.23.23,0,0,1,11.81,18.32Z" transform="translate(-5.19 -5.13)"/></svg>