<svg id="Capa_1" data-name="Capa 1" xmlns="http://www.w3.org/2000/svg" viewBox="0 0 49.65 35.1"><defs><style>.cls-1{fill:#fff;}.cls-2{fill:#1d47bc;}</style></defs><path class="cls-1" d="M52.92,16.12a2.13,2.13,0,0,1-1.26,2h0a18.3,18.3,0,0,0-2.56,1.34,32.35,32.35,0,0,0-5.77,4.78,13.14,13.14,0,0,1-2.78,2.14l-16.1,8.51a2.33,2.33,0,0,0,.8-1.73,2.28,2.28,0,0,0-.57-1.55,2.33,2.33,0,0,0-3.1-.37v0l.56-.48A2.5,2.5,0,0,0,18.83,27l.91-.79a2.5,2.5,0,0,0,.85-1.85A2.44,2.44,0,0,0,20,22.68a2.51,2.51,0,0,0-3.51-.25l-1.1,1h0l.19-.16a2.49,2.49,0,0,0,.24-3.53A2.48,2.48,0,0,0,12.93,19l9.91-6.16h0l.11-.08,1.19-.9,5.45-4.14h0l4.12-2.32a6.13,6.13,0,0,1,3.35-.76,13.85,13.85,0,0,0,6.12-1.53h0a2.19,2.19,0,0,1,1.95,0c1.26.56,3.32,2,5.4,5.64A15.26,15.26,0,0,1,52.92,16.12Z" transform="translate(-3.9 -2.23)"/><path class="cls-2" d="M24.43,35.53a.6.6,0,0,1-.51-.27.62.62,0,0,1,.1-.82,1.7,1.7,0,0,0-2.1-2.67.62.62,0,0,1-.86-.14.64.64,0,0,1,.08-.86l.56-.48a1.9,1.9,0,0,0,.64-1.4,1.86,1.86,0,0,0-.46-1.25,1.88,1.88,0,0,0-2.64-.19.62.62,0,0,1-.82-.94l.91-.79A1.86,1.86,0,0,0,20,24.34a1.91,1.91,0,0,0-.46-1.25,1.86,1.86,0,0,0-1.28-.63,1.79,1.79,0,0,0-1.35.45l-1.1.95a.65.65,0,0,1-.5.15.64.64,0,0,1-.33-1.1l.19-.16a1.87,1.87,0,0,0,.64-1.4,1.83,1.83,0,0,0-.45-1.25,1.9,1.9,0,0,0-2.16-.5.62.62,0,0,1-.57-1.1l9.86-6.13h0l1.29-1,5.46-4.15,0,0,.05,0,4.12-2.32A6.74,6.74,0,0,1,37.1,4a12.12,12.12,0,0,0,5.37-1.28l.42-.18a2.76,2.76,0,0,1,2.52-.08c1.41.63,3.55,2.17,5.68,5.9a15.82,15.82,0,0,1,2.45,7.73,2.76,2.76,0,0,1-1.64,2.59h0A17.78,17.78,0,0,0,49.42,20a31.65,31.65,0,0,0-5.67,4.69A14.13,14.13,0,0,1,40.84,27L24.72,35.46A.59.59,0,0,1,24.43,35.53Zm-1.15-5.3a2.89,2.89,0,0,1,1.85,1,2.92,2.92,0,0,1,.72,2,2.44,2.44,0,0,1,0,.27l14.4-7.61a12.55,12.55,0,0,0,2.63-2A32.08,32.08,0,0,1,48.75,19a18.88,18.88,0,0,1,2.64-1.39h0a1.52,1.52,0,0,0,.87-1.44h0A14.89,14.89,0,0,0,50,9c-2.07-3.61-4.09-4.92-5.11-5.37a1.51,1.51,0,0,0-1.36,0l-.11.06L43,3.9A13.41,13.41,0,0,1,37,5.27,5.64,5.64,0,0,0,34,6L29.94,8.26l-6.68,5.07a.35.35,0,0,1-.09.07l-8.09,5a3.27,3.27,0,0,1,1.19.85A3.11,3.11,0,0,1,17,21.37v0a3.11,3.11,0,0,1,4.18,3,3,3,0,0,1-.36,1.42,3.13,3.13,0,0,1,2.74,3.14A3.32,3.32,0,0,1,23.28,30.23Z" transform="translate(-3.9 -2.23)"/><path class="cls-2" d="M23,12.78l1.19-.92v0Z" transform="translate(-3.9 -2.23)"/><path class="cls-2" d="M23,13.4a.62.62,0,0,1-.38-1.11l1.19-.93a.63.63,0,0,1,.79,0,.62.62,0,0,1,.18.69.36.36,0,0,1,0,.09.55.55,0,0,1-.18.22l-1.18.9A.66.66,0,0,1,23,13.4Z" transform="translate(-3.9 -2.23)"/><path class="cls-1" d="M31.45,14.23l12.37,9.34L44,25.85a15.06,15.06,0,0,1-1.71,1.38H40.45l.45.89-.65,2-.8,1.13-2.79-.12v1l-1.3,1.31-1.87.44-1.32.53-1,1.64-2.09.61-7.34-5.57Z" transform="translate(-3.9 -2.23)"/><path class="cls-2" d="M30,37.33a5.67,5.67,0,0,1-3.25-1.28l-3.95-3h0l-5.67-4.33A33.18,33.18,0,0,1,13,24.77,19.33,19.33,0,0,0,9.25,21.2l-1.2-.94a22,22,0,0,0-2.62-1.81,3,3,0,0,1-1.52-2.91c.16-1.6.91-4.18,3.51-7.4,2.72-3.38,5.24-4.53,6.87-4.89a3.27,3.27,0,0,1,2.65.53,9.66,9.66,0,0,1,1.6,1.28,7.53,7.53,0,0,0,3.52,2.13,21,21,0,0,1,6.84,4,49.39,49.39,0,0,0,4.24,3.28c.38.24.8.53,1.66,1.16l8.63,6.58a3.42,3.42,0,0,1,1.31,2.13A3,3,0,0,1,42,27.86a3.17,3.17,0,0,1-.44,0,3.25,3.25,0,0,1,.11.42,3,3,0,0,1-.57,2.38,3.14,3.14,0,0,1-3.77.86,3,3,0,0,1-.6,2.07,3.19,3.19,0,0,1-3.83.9,2.91,2.91,0,0,1-1.2,2.17A2.59,2.59,0,0,1,30,37.33ZM24,32.4l3.49,2.66c.84.64,2.52,1.5,3.46.67a1.7,1.7,0,0,0,.75-1.34A1.58,1.58,0,0,0,31,33.17h0a.62.62,0,0,1-.11-.87.61.61,0,0,1,.87-.12l1.2.91a2,2,0,0,0,2.8-.23,1.8,1.8,0,0,0,.32-1.41,2.2,2.2,0,0,0-.84-1.36h0a.62.62,0,0,1,.76-1l1.38,1a2,2,0,0,0,2.75-.23,1.77,1.77,0,0,0,.33-1.4,2.18,2.18,0,0,0-.83-1.35h0a.62.62,0,0,1,.75-1h0a2.2,2.2,0,0,0,1.53.45,1.76,1.76,0,0,0,1.6-2.09,2.17,2.17,0,0,0-.84-1.36L34.05,16.6c-.82-.61-1.23-.88-1.59-1.12a49.59,49.59,0,0,1-4.35-3.35,20.09,20.09,0,0,0-6.37-3.74A8.68,8.68,0,0,1,17.7,6a8.45,8.45,0,0,0-1.42-1.14l-.06,0a2,2,0,0,0-1.65-.34c-1.44.33-3.68,1.36-6.18,4.46S5.3,14.24,5.15,15.67A1.75,1.75,0,0,0,6,17.36a23.63,23.63,0,0,1,2.79,1.93l1.19.93A21.16,21.16,0,0,1,13.93,24a32,32,0,0,0,3.91,3.75L24,32.39Z" transform="translate(-3.9 -2.23)"/><path class="cls-2" d="M40.16,27.41a.58.58,0,0,1-.37-.13l-6.27-4.75a.61.61,0,0,1-.12-.87.62.62,0,0,1,.87-.12l6.27,4.75a.62.62,0,0,1,.12.87A.63.63,0,0,1,40.16,27.41Z" transform="translate(-3.9 -2.23)"/><path class="cls-2" d="M35.9,30.42a.6.6,0,0,1-.38-.13L30,26.15a.63.63,0,0,1,.76-1l5.47,4.15a.61.61,0,0,1,.12.87A.6.6,0,0,1,35.9,30.42Z" transform="translate(-3.9 -2.23)"/><path class="cls-2" d="M31.75,33.58a.63.63,0,0,1-.37-.12L26.5,29.77a.63.63,0,0,1-.12-.88.62.62,0,0,1,.87-.12l4.88,3.69a.63.63,0,0,1,.12.88A.62.62,0,0,1,31.75,33.58Z" transform="translate(-3.9 -2.23)"/><path class="cls-1" d="M18,20.58a2.49,2.49,0,0,1-.86,1.86L17,22.6l-2.32,2a2.5,2.5,0,1,1-3.28-3.77l2.5-2.18.66-.41a2.51,2.51,0,0,1,2.87.66A2.47,2.47,0,0,1,18,20.58Z" transform="translate(-3.9 -2.23)"/><path class="cls-2" d="M13,25.85h-.22A3.12,3.12,0,0,1,11,20.37l2.5-2.18.08-.06.66-.41.09,0a3.09,3.09,0,0,1,3.58.82,3.13,3.13,0,0,1,.76,2.09h0a3.12,3.12,0,0,1-1.07,2.32l-2.5,2.17A3.09,3.09,0,0,1,13,25.85Zm1.23-6.68-2.47,2.14A1.87,1.87,0,0,0,11.61,24a1.88,1.88,0,0,0,2.65.18L16.76,22a1.87,1.87,0,0,0-1.92-3.16ZM18,20.58Z" transform="translate(-3.9 -2.23)"/><path class="cls-1" d="M24.59,28.12A2.49,2.49,0,0,1,23.73,30l-.56.49-1.94,1.69a2.51,2.51,0,0,1-3.3-3.77l2.14-1.86.38-.33a2.53,2.53,0,0,1,3.53.25A2.57,2.57,0,0,1,24.59,28.12Z" transform="translate(-3.9 -2.23)"/><path class="cls-2" d="M19.59,33.39a3.12,3.12,0,0,1-2.07-5.47L20,25.73a3.14,3.14,0,0,1,4.41.32,3.09,3.09,0,0,1,.76,2.08h0a3.1,3.1,0,0,1-1.07,2.32l-2.5,2.18A3.16,3.16,0,0,1,19.59,33.39Zm2.5-7.17a1.89,1.89,0,0,0-1.23.45l-2.52,2.19a1.88,1.88,0,1,0,2.48,2.83l2.5-2.18a1.9,1.9,0,0,0,.19-2.65A1.9,1.9,0,0,0,22.09,26.22Zm2.5,1.9Z" transform="translate(-3.9 -2.23)"/><path class="cls-1" d="M22.21,23.57a2.49,2.49,0,0,1-.85,1.85l-.91.78-.38.33-2.14,1.86a2.49,2.49,0,1,1-3.26-3.76l2.32-2,1.1-.95a2.5,2.5,0,0,1,3.51.24A2.47,2.47,0,0,1,22.21,23.57Z" transform="translate(-3.9 -2.23)"/><path class="cls-2" d="M16.3,29.62h-.22a3.12,3.12,0,0,1-1.82-5.46l3.42-3a3.12,3.12,0,0,1,4.39.31,3.09,3.09,0,0,1,.77,2.07h0a3.14,3.14,0,0,1-1.07,2.32l-3.43,3A3.05,3.05,0,0,1,16.3,29.62Zm3.42-7.95a1.83,1.83,0,0,0-1.22.46l-3.42,3a1.87,1.87,0,0,0-.64,1.28,1.92,1.92,0,0,0,.45,1.36,1.86,1.86,0,0,0,1.28.63,1.84,1.84,0,0,0,1.35-.45L21,25a1.9,1.9,0,0,0,.64-1.39,1.86,1.86,0,0,0-.46-1.25,1.84,1.84,0,0,0-1.28-.63Zm2.49,1.9h0Z" transform="translate(-3.9 -2.23)"/><path class="cls-1" d="M26.85,32.4a2.28,2.28,0,0,1-.8,1.73l-1.2,1a2.33,2.33,0,1,1-3.05-3.51L23,30.62l.18-.14a2.34,2.34,0,0,1,3.11.37A2.32,2.32,0,0,1,26.85,32.4Z" transform="translate(-3.9 -2.23)"/><path class="cls-2" d="M23.33,36.37a2.94,2.94,0,0,1-2.23-1,2.88,2.88,0,0,1-.71-2.14,2.92,2.92,0,0,1,1-2l1.2-1,.25-.19a2.94,2.94,0,0,1,3.92.48,3,3,0,0,1,.72,2h0a2.9,2.9,0,0,1-1,2.19l-1.2,1A3,3,0,0,1,23.33,36.37Zm1.2-5.7a1.74,1.74,0,0,0-1,.32l-.14.11-1.19,1a1.71,1.71,0,0,0-.17,2.4,1.71,1.71,0,0,0,2.4.17l1.21-1.05a1.73,1.73,0,0,0,.58-1.27h0a1.69,1.69,0,0,0-.42-1.13A1.67,1.67,0,0,0,24.53,30.67Z" transform="translate(-3.9 -2.23)"/><path class="cls-1" d="M32.43,17.84,30.6,14.6l.5-3.3-2-3.21-5,3.77a3.75,3.75,0,0,0,.61,3l3.18,5.64a2.57,2.57,0,0,0,3.73,1.06A2.64,2.64,0,0,0,32.43,17.84Z" transform="translate(-3.9 -2.23)"/><path class="cls-2" d="M30.2,22.62a3.22,3.22,0,0,1-2.81-1.78L24.2,15.2a4.39,4.39,0,0,1-.65-3.54.65.65,0,0,1,.22-.3l5-3.77a.63.63,0,0,1,.75,1l-4.82,3.64a3.42,3.42,0,0,0,.6,2.35l3.18,5.64a2,2,0,0,0,2.88.82,2,2,0,0,0,.54-2.89l-1.83-3.24a.61.61,0,0,1-.07-.4l.5-3.3a.61.61,0,0,1,.7-.52.62.62,0,0,1,.53.71l-.47,3.09,1.73,3a3.27,3.27,0,0,1-1,4.59A3.62,3.62,0,0,1,30.2,22.62Z" transform="translate(-3.9 -2.23)"/><path class="cls-2" d="M34.07,16c-.25,0-.51,0-.76,0a.63.63,0,0,1-.58-.67.62.62,0,0,1,.67-.57c4,.3,7.83-2.33,7.87-2.36a.63.63,0,0,1,.87.16.64.64,0,0,1-.16.87A15.69,15.69,0,0,1,34.07,16Z" transform="translate(-3.9 -2.23)"/></svg>