<svg id="Capa_1" data-name="Capa 1" xmlns="http://www.w3.org/2000/svg" viewBox="0 0 41.38 41.11"><defs><style>.cls-1{fill:#1d47bc;stroke:#1d47bc;stroke-miterlimit:10;}</style></defs><path class="cls-1" d="M33.63,43.07H2.17a.55.55,0,0,1-.55-.55V11.45a.55.55,0,0,1,.55-.56H33.63a.56.56,0,0,1,.56.56V42.52A.56.56,0,0,1,33.63,43.07ZM2.72,42H33.08V12H2.72Z" transform="translate(-1.12 -2.46)"/><path class="cls-1" d="M41.45,35.14H33.63a.56.56,0,0,1,0-1.11h7.26v-30H10.54v7.38a.56.56,0,0,1-1.11,0V3.52A.56.56,0,0,1,10,3H41.45a.56.56,0,0,1,.55.56V34.59A.55.55,0,0,1,41.45,35.14Z" transform="translate(-1.12 -2.46)"/></svg>