<svg id="Capa_1" data-name="Capa 1" xmlns="http://www.w3.org/2000/svg" viewBox="0 0 41.25 36.89"><defs><style>.cls-1{fill:#1d47bc;stroke:#1d47bc;stroke-miterlimit:10;}</style></defs><path class="cls-1" d="M40.84,40.11H1.69a.54.54,0,0,1-.55-.55A.55.55,0,0,1,1.69,39H40.84a.55.55,0,0,1,.55.55A.55.55,0,0,1,40.84,40.11Z" transform="translate(-0.64 -3.73)"/><path class="cls-1" d="M11.92,35.83a.55.55,0,0,1-.55-.52l-.4-6.4a.49.49,0,0,1,.09-.33L26.68,4.48a.54.54,0,0,1,.76-.16l6.39,4.13a.55.55,0,0,1,.16.77L18.37,33.31a.53.53,0,0,1-.27.22l-6,2.26A.71.71,0,0,1,11.92,35.83Zm.17-6.8.34,5.46,5.11-1.93L32.76,9.08,27.31,5.55Zm5.82,4Z" transform="translate(-0.64 -3.73)"/></svg>