<svg id="Capa_1" data-name="Capa 1" xmlns="http://www.w3.org/2000/svg" viewBox="0 0 33.71 40.91"><defs><style>.cls-1{fill:#1d47bc;stroke:#1d47bc;stroke-miterlimit:10;}</style></defs><path class="cls-1" d="M18.19,23A9.79,9.79,0,1,1,28,13.18,9.81,9.81,0,0,1,18.19,23Zm0-18.48a8.69,8.69,0,1,0,8.68,8.69A8.7,8.7,0,0,0,18.19,4.49Z" transform="translate(-5.35 -2.89)"/><path class="cls-1" d="M30.44,43.3H6.4a.55.55,0,0,1-.55-.55V34.44a12.58,12.58,0,0,1,25.15,0v8.31A.56.56,0,0,1,30.44,43.3ZM7,42.2H29.89V34.44A11.47,11.47,0,0,0,7,34.44Z" transform="translate(-5.35 -2.89)"/><path class="cls-1" d="M27,25.05a8.82,8.82,0,0,1-6.26-2.59.56.56,0,0,1,0-.78.56.56,0,0,1,.79,0A7.74,7.74,0,1,0,27,8.46a8.47,8.47,0,0,0-1.13.08.55.55,0,1,1-.16-1.09A9.22,9.22,0,0,1,27,7.36a8.85,8.85,0,1,1,0,17.69Z" transform="translate(-5.35 -2.89)"/><path class="cls-1" d="M38,43.3H30.44a.55.55,0,0,1-.55-.55.55.55,0,0,1,.55-.55h7V35.29a10.15,10.15,0,0,0-10-10.24,9.48,9.48,0,0,0-1.69.15.55.55,0,0,1-.19-1.09A10.68,10.68,0,0,1,27.41,24,11.26,11.26,0,0,1,38.56,35.29v7.46A.55.55,0,0,1,38,43.3Z" transform="translate(-5.35 -2.89)"/></svg>