<svg id="Capa_1" data-name="Capa 1" xmlns="http://www.w3.org/2000/svg" viewBox="0 0 32.7 32.3"><defs><style>.cls-1{fill:#2b388f;stroke:#2b388f;stroke-miterlimit:10;stroke-width:0.25px;}</style></defs><path class="cls-1" d="M25.42,23.8a.15.15,0,0,1-.09,0,.22.22,0,0,1-.14-.21L25.1,12.32a.23.23,0,0,1,.14-.21.21.21,0,0,1,.25.05l7.85,8a.23.23,0,0,1,0,.25.24.24,0,0,1-.21.14h0l-4.45,0-3.15,3.2A.2.2,0,0,1,25.42,23.8Zm.14-10.92L25.64,23l2.83-2.88a.29.29,0,0,1,.16-.07l4,0Z" transform="translate(-2.43 -3.52)"/><path class="cls-1" d="M31.41,27.25a.23.23,0,0,1-.21-.14l-2.78-6.72a.23.23,0,1,1,.42-.18l2.78,6.73a.23.23,0,0,1-.12.3Z" transform="translate(-2.43 -3.52)"/><path class="cls-1" d="M34.56,35.7H3a.45.45,0,0,1-.45-.44V4.09A.44.44,0,0,1,3,3.65H34.56a.44.44,0,0,1,.44.44V35.26A.44.44,0,0,1,34.56,35.7ZM3.44,34.81H34.12V4.53H3.44Z" transform="translate(-2.43 -3.52)"/><path class="cls-1" d="M18.78,11.88H6.85a.44.44,0,0,1,0-.88H18.78a.44.44,0,0,1,0,.88Z" transform="translate(-2.43 -3.52)"/><path class="cls-1" d="M18.78,19.84H6.85a.44.44,0,0,1-.44-.44A.44.44,0,0,1,6.85,19H18.78a.44.44,0,0,1,.44.44A.44.44,0,0,1,18.78,19.84Z" transform="translate(-2.43 -3.52)"/><path class="cls-1" d="M18.78,27.8H6.85a.45.45,0,0,1,0-.89H18.78a.45.45,0,0,1,0,.89Z" transform="translate(-2.43 -3.52)"/><path class="cls-1" d="M25.48,24H6.76a.4.4,0,0,1-.35-.44.41.41,0,0,1,.35-.44H25.48Z" transform="translate(-2.43 -3.52)"/><path class="cls-1" d="M23,15.47H6.81c-.17,0-.31-.19-.31-.44s.14-.44.31-.44H23c.17,0,.31.2.31.44S23.19,15.47,23,15.47Z" transform="translate(-2.43 -3.52)"/></svg>