<svg id="Capa_1" data-name="Capa 1" xmlns="http://www.w3.org/2000/svg" viewBox="0 0 25.47 42.16"><defs><style>.cls-1{fill:#1d47bc;}</style></defs><path class="cls-1" d="M19.18,3.66a.67.67,0,0,1,.58.32l7,11.11a.68.68,0,0,1,.1.5L21.65,42.27a.69.69,0,0,1-.67.56H10.48a.7.7,0,0,1-.68-.56L4.41,14.89a.7.7,0,0,1,.1-.51L11.24,4a.7.7,0,0,1,.58-.32h7.36m0-1.5H11.82a2.21,2.21,0,0,0-1.84,1L3.25,13.57a2.18,2.18,0,0,0-.31,1.61L8.33,42.56a2.19,2.19,0,0,0,2.15,1.77H21a2.18,2.18,0,0,0,2.14-1.77l5.21-26.68a2.17,2.17,0,0,0-.3-1.59L21,3.18a2.2,2.2,0,0,0-1.85-1Z" transform="translate(-2.9 -2.16)"/><path class="cls-1" d="M16.61,11.24a.07.07,0,0,1,.07.07V15.2a.5.5,0,0,0,.5.5H22.8a.08.08,0,0,1,.07.08v1.71a.07.07,0,0,1-.07.07H17.18a.5.5,0,0,0-.5.5V30.89a.07.07,0,0,1-.07.07H14.9a.08.08,0,0,1-.08-.07V18.06a.5.5,0,0,0-.5-.5H8.71a.08.08,0,0,1-.08-.07V15.78a.09.09,0,0,1,.08-.08h5.61a.5.5,0,0,0,.5-.5V11.31a.08.08,0,0,1,.08-.07h1.71m0-.5H14.9a.58.58,0,0,0-.58.57V15.2H8.71a.58.58,0,0,0-.58.58v1.71a.58.58,0,0,0,.58.57h5.61V30.89a.57.57,0,0,0,.58.57h1.71a.57.57,0,0,0,.57-.57V18.06H22.8a.57.57,0,0,0,.57-.57V15.78a.57.57,0,0,0-.57-.58H17.18V11.31a.58.58,0,0,0-.57-.57Z" transform="translate(-2.9 -2.16)"/></svg>