<svg id="Capa_1" data-name="Capa 1" xmlns="http://www.w3.org/2000/svg" viewBox="0 0 33.16 24.23"><defs><style>.cls-1{fill:#1d47bc;stroke:#1d47bc;stroke-miterlimit:10;}</style></defs><line class="cls-1" x1="28.46" y1="4.68" x2="32.81" y2="0.35"/><line class="cls-1" x1="32.81" y1="4.68" x2="28.46" y2="0.35"/><path class="cls-1" d="M29.43,11.07H6.14a.51.51,0,0,1,0-1H29.43a.51.51,0,1,1,0,1Z" transform="translate(-5.13 -5.9)"/><path class="cls-1" d="M29.43,20.35H6.14a.52.52,0,0,1,0-1H29.43a.52.52,0,0,1,0,1Z" transform="translate(-5.13 -5.9)"/><path class="cls-1" d="M29.43,29.63H6.14a.52.52,0,0,1,0-1H29.43a.52.52,0,0,1,0,1Z" transform="translate(-5.13 -5.9)"/><path class="cls-1" d="M36.68,20.35H35.33a.52.52,0,0,1,0-1h1.35a.52.52,0,0,1,0,1Z" transform="translate(-5.13 -5.9)"/><path class="cls-1" d="M36.68,29.63H35.33a.52.52,0,0,1,0-1h1.35a.52.52,0,0,1,0,1Z" transform="translate(-5.13 -5.9)"/></svg>