<svg id="Capa_1" data-name="Capa 1" xmlns="http://www.w3.org/2000/svg" viewBox="0 0 36.66 36.23"><defs><style>.cls-1{fill:#1d47bc;}.cls-2{fill:none;stroke:#1d47bc;stroke-linecap:round;stroke-linejoin:round;stroke-width:1.5px;}</style></defs><path class="cls-1" d="M19.36,9.36A13.64,13.64,0,1,1,5.72,23,13.66,13.66,0,0,1,19.36,9.36m0-1.5A15.14,15.14,0,1,0,34.5,23,15.14,15.14,0,0,0,19.36,7.86Z" transform="translate(-1.03 -1.91)"/><path class="cls-2" d="M4.11,24.52a2.71,2.71,0,1,1,.74-5.36" transform="translate(-1.03 -1.91)"/><path class="cls-2" d="M34.23,19a2.71,2.71,0,1,1,0,5.41" transform="translate(-1.03 -1.91)"/><path class="cls-2" d="M10.44,23.27s2.7-3.78,5.41-.54" transform="translate(-1.03 -1.91)"/><path class="cls-2" d="M27.86,23.33s-2.7-3.79-5.41-.54" transform="translate(-1.03 -1.91)"/><path class="cls-2" d="M14.77,31.38s3.24,4.33,8.65.55" transform="translate(-1.03 -1.91)"/><path class="cls-2" d="M15.31,4.89s3.78-.53,3.78,3" transform="translate(-1.03 -1.91)"/><path class="cls-2" d="M23.42,2.73s-4.34-1-4.34,4.89" transform="translate(-1.03 -1.91)"/></svg>