<svg id="Capa_1" data-name="Capa 1" xmlns="http://www.w3.org/2000/svg" viewBox="0 0 41.6 41.11"><defs><style>.cls-1{fill:#1d47bc;stroke:#1d47bc;stroke-miterlimit:10;}</style></defs><path class="cls-1" d="M41.68,43.51H2.18A.55.55,0,0,1,1.63,43V4a.54.54,0,0,1,.55-.55h39.5a.55.55,0,0,1,.55.55V43A.56.56,0,0,1,41.68,43.51ZM2.73,42.4H41.12V4.5H2.73Z" transform="translate(-1.13 -2.9)"/><path class="cls-1" d="M21.93,13.7H7a.55.55,0,0,1-.55-.55A.55.55,0,0,1,7,12.6H21.93a.55.55,0,0,1,.55.55A.55.55,0,0,1,21.93,13.7Z" transform="translate(-1.13 -2.9)"/><path class="cls-1" d="M36.33,18.68H7a.55.55,0,0,1-.55-.55A.55.55,0,0,1,7,17.58H36.33a.55.55,0,0,1,.55.55A.55.55,0,0,1,36.33,18.68Z" transform="translate(-1.13 -2.9)"/><path class="cls-1" d="M21.93,23.66H7a.55.55,0,0,1-.55-.55A.55.55,0,0,1,7,22.56H21.93a.55.55,0,0,1,.55.55A.55.55,0,0,1,21.93,23.66Z" transform="translate(-1.13 -2.9)"/><path class="cls-1" d="M21.93,33.62H7a.56.56,0,0,1,0-1.11H21.93a.56.56,0,0,1,0,1.11Z" transform="translate(-1.13 -2.9)"/><path class="cls-1" d="M36.33,28.64H7a.56.56,0,0,1,0-1.11H36.33a.56.56,0,0,1,0,1.11Z" transform="translate(-1.13 -2.9)"/></svg>