<svg id="Capa_1" data-name="Capa 1" xmlns="http://www.w3.org/2000/svg" viewBox="0 0 41.6 41.11"><defs><style>.cls-1{fill:#1d47bc;}.cls-1,.cls-2{stroke:#1d47bc;stroke-miterlimit:10;}.cls-2{fill:none;}</style></defs><path class="cls-1" d="M41.44,42.42H1.94a.54.54,0,0,1-.55-.55v-39a.54.54,0,0,1,.55-.55h39.5a.55.55,0,0,1,.55.55v39A.55.55,0,0,1,41.44,42.42ZM2.49,41.32H40.88V3.42H2.49Z" transform="translate(-0.89 -1.82)"/><path class="cls-1" d="M21.69,12.62H6.76a.56.56,0,0,1,0-1.11H21.69a.56.56,0,0,1,0,1.11Z" transform="translate(-0.89 -1.82)"/><path class="cls-1" d="M21.69,22.58H6.76a.56.56,0,0,1,0-1.11H21.69a.56.56,0,0,1,0,1.11Z" transform="translate(-0.89 -1.82)"/><path class="cls-1" d="M21.69,32.54H6.76a.56.56,0,0,1,0-1.11H21.69a.56.56,0,0,1,0,1.11Z" transform="translate(-0.89 -1.82)"/><path class="cls-1" d="M21.7,27.73H6.5c-.16,0-.29-.25-.29-.56s.13-.55.29-.55H21.7Z" transform="translate(-0.89 -1.82)"/><path class="cls-1" d="M36.94,27.73h-7.7c-.08,0-.15-.25-.15-.56s.07-.55.15-.55h7.7c.08,0,.15.25.15.55S37,27.73,36.94,27.73Z" transform="translate(-0.89 -1.82)"/><path class="cls-1" d="M27,17.12H6.71c-.21,0-.38-.25-.38-.56S6.5,16,6.71,16H27c.21,0,.38.25.38.55S27.21,17.12,27,17.12Z" transform="translate(-0.89 -1.82)"/><path class="cls-2" d="M21.46,32.71a.39.39,0,0,1-.23-.07.42.42,0,0,1-.2-.33l-.31-5a.48.48,0,0,1,.07-.26L32.92,8.37a.43.43,0,0,1,.59-.13l5,3.21a.4.4,0,0,1,.19.27.48.48,0,0,1-.06.33L26.47,30.76a.44.44,0,0,1-.21.17l-4.65,1.75A.4.4,0,0,1,21.46,32.71Zm.13-5.28.26,4.24,4-1.5L37.65,11.94,33.41,9.19Zm4.52,3.09Z" transform="translate(-0.89 -1.82)"/></svg>