<svg id="Capa_1" data-name="Capa 1" xmlns="http://www.w3.org/2000/svg" viewBox="0 0 10.87 16.95"><defs><style>.cls-1{fill:none;stroke:#fff;stroke-miterlimit:10;stroke-width:0.5px;}</style></defs><path class="cls-1" d="M10.82,14.27a4,4,0,1,1,4-4A4,4,0,0,1,10.82,14.27Zm0-7.62a3.58,3.58,0,1,0,3.58,3.58A3.59,3.59,0,0,0,10.82,6.65Z" transform="translate(-5.49 -5.95)"/><path class="cls-1" d="M15.87,22.65H6a.23.23,0,0,1-.22-.23V19A5.18,5.18,0,1,1,16.1,19v3.42A.23.23,0,0,1,15.87,22.65Zm-9.68-.46h9.45V19a4.73,4.73,0,1,0-9.45,0Z" transform="translate(-5.49 -5.95)"/></svg>