<svg id="Capa_1" data-name="Capa 1" xmlns="http://www.w3.org/2000/svg" viewBox="0 0 36.5 41.76"><defs><style>.cls-1{fill:none;stroke:#1d47bc;stroke-miterlimit:10;}</style></defs><path class="cls-1" d="M18.57,33.25A15.47,15.47,0,1,1,34,17.79,15.48,15.48,0,0,1,18.57,33.25Zm0-29.83A14.37,14.37,0,1,0,32.93,17.79,14.39,14.39,0,0,0,18.57,3.42Z" transform="translate(-2.61 -1.82)"/><path class="cls-1" d="M38.05,43.08a.56.56,0,0,1-.42-.2L26.87,30.24a.56.56,0,0,1,.07-.78.55.55,0,0,1,.78.06L38.47,42.16a.55.55,0,0,1-.06.78A.54.54,0,0,1,38.05,43.08Z" transform="translate(-2.61 -1.82)"/></svg>