<svg id="Capa_1" data-name="Capa 1" xmlns="http://www.w3.org/2000/svg" viewBox="0 0 42.1 30.03"><defs><style>.cls-1{fill:#1d47bc;}</style></defs><path class="cls-1" d="M31.59,6.43l2.58,4.18a1.48,1.48,0,0,0,.66.58A11.64,11.64,0,0,1,30,33.43a11.52,11.52,0,0,1-7.24-2.53,1.46,1.46,0,0,0-.93-.32,1.54,1.54,0,0,0-.87.27A11.64,11.64,0,1,1,14.2,9.72a11.52,11.52,0,0,1,7.24,2.53,1.47,1.47,0,0,0,.93.33,1.53,1.53,0,0,0,.87-.28,11.41,11.41,0,0,1,1.33-.82,1.61,1.61,0,0,0,.62-.62l2.32-4.31,4.08-.12m.82-1.53-5.81.17-2.73,5.08a12.11,12.11,0,0,0-1.5.93,13.15,13.15,0,1,0-.55,21A13.15,13.15,0,1,0,35.45,9.83l-3-4.93Z" transform="translate(-1.05 -4.9)"/><path class="cls-1" d="M14.2,9.72A11.65,11.65,0,1,1,2.55,21.37,11.66,11.66,0,0,1,14.2,9.72m0-1.5A13.15,13.15,0,1,0,27.35,21.37,13.15,13.15,0,0,0,14.2,8.22Z" transform="translate(-1.05 -4.9)"/><path class="cls-1" d="M30,10.13A11.65,11.65,0,1,1,18.34,21.78,11.67,11.67,0,0,1,30,10.13m0-1.5A13.15,13.15,0,1,0,43.15,21.78,13.15,13.15,0,0,0,30,8.63Z" transform="translate(-1.05 -4.9)"/></svg>